<?xml version="1.0" encoding="UTF-8"?>
<!DOCTYPE svg PUBLIC "-//W3C//DTD SVG 1.1//EN" "http://www.w3.org/Graphics/SVG/1.1/DTD/svg11.dtd">
<!-- Creator: CorelDRAW -->
<svg xmlns="http://www.w3.org/2000/svg" xml:space="preserve" width="254mm" height="254mm" version="1.1" style="shape-rendering:geometricPrecision; text-rendering:geometricPrecision; image-rendering:optimizeQuality; fill-rule:evenodd; clip-rule:evenodd"
viewBox="0 0 25400 25400"
 xmlns:xlink="http://www.w3.org/1999/xlink"
 xmlns:xodm="http://www.corel.com/coreldraw/odm/2003">
 <defs>
  <style type="text/css">
   <![CDATA[
    .str7 {stroke:#006EC8;stroke-width:50;stroke-miterlimit:22.9256}
    .str5 {stroke:#016DC6;stroke-width:50;stroke-miterlimit:22.9256}
    .str2 {stroke:#066FC8;stroke-width:50;stroke-miterlimit:22.9256}
    .str6 {stroke:#006DC7;stroke-width:20;stroke-miterlimit:22.9256}
    .str8 {stroke:#006EC8;stroke-width:20;stroke-miterlimit:22.9256}
    .str3 {stroke:#016DC6;stroke-width:20;stroke-miterlimit:22.9256}
    .str4 {stroke:#016FC8;stroke-width:20;stroke-miterlimit:22.9256}
    .str1 {stroke:#066FC8;stroke-width:20;stroke-miterlimit:22.9256}
    .str0 {stroke:#2595FB;stroke-width:20;stroke-miterlimit:22.9256}
    .str10 {stroke:#6EB7F8;stroke-width:20;stroke-miterlimit:22.9256}
    .str9 {stroke:#AED5F9;stroke-width:20;stroke-miterlimit:22.9256}
    .fil6 {fill:#006DC7}
    .fil7 {fill:#006EC8}
    .fil5 {fill:#016DC6}
    .fil4 {fill:#066FC8}
    .fil2 {fill:#066FC9}
    .fil0 {fill:#2595FB}
    .fil9 {fill:#6EB7F8}
    .fil8 {fill:#AED5F9}
    .fil1 {fill:#E6F2FE}
    .fil3 {fill:#E8F4FF}
   ]]>
  </style>
 </defs>
 <g id="圖層_x0020_1">
  <metadata id="CorelCorpID_0Corel-Layer"/>
  <rect class="fil0 str0" x="650.45" y="812.25" width="23748.11" height="23748.11" rx="2610.02" ry="2610.02"/>
  <path class="fil1" d="M3248.25 17028.91c4.07,1516.39 12.85,1701.98 95.86,1958.74 83.01,256.75 240.24,584.67 454.79,816.6 214.56,231.94 486.44,367.88 691.81,442.9 205.36,75.03 344.2,89.14 458.21,96.19 114,7.05 203.17,7.05 267.71,7.05 64.52,0 104.46,0 143.39,0 38.91,0 76.83,0 119.09,0 42.24,0 88.82,0 2005.02,0 1916.19,0 5702,0 7605.56,0 1903.57,0 1924.87,0 1949.41,0 24.55,0 52.31,0 79.33,0 27.02,0 53.27,0 83.5,-1.11 30.24,-1.11 64.45,-3.34 132.36,-11.15 67.93,-7.81 169.55,-21.22 321.45,-63.38 151.91,-42.17 354.09,-113.1 585.77,-257.61 231.69,-144.52 492.87,-362.65 689.19,-621.26 196.33,-258.62 327.8,-557.74 403.68,-780.46 75.88,-222.72 96.18,-369.03 107.92,-489.34 11.74,-120.33 14.91,-214.68 16.49,-264.5 1.59,-49.83 1.59,-55.17 1.59,-61.37 0,-6.21 0,-13.31 2.17,-1870.28 2.18,-1856.99 6.51,-5563.86 8.67,-7421.5 2.19,-1857.65 2.19,-1866.06 1.91,-1876.46 -0.28,-10.39 -0.85,-22.75 -13.27,-116.11 -12.41,-93.35 -36.66,-267.71 -127.49,-485.71 -90.84,-218 -248.26,-479.63 -436.7,-661.67 -188.43,-182.05 -407.9,-284.5 -563.97,-347.17 -156.07,-62.68 -248.73,-85.55 -401.19,-94.29 -152.43,-8.74 -364.65,-3.31 -482.21,0.77 -117.55,4.09 -140.44,6.83 -2184.29,351.99 -2043.84,345.17 -6108.62,1032.73 -8148.19,1377.62 -2039.57,344.87 -2053.89,347.07 -2096.64,354.23 -42.76,7.16 -113.96,19.32 -201.14,37.04 -87.19,17.71 -190.38,40.99 -289.55,76.2 -99.19,35.21 -194.34,82.33 -293.12,142.79 -98.78,60.46 -201.2,134.27 -333.27,253.48 -132.09,119.22 -293.85,283.84 -400.69,470.52 -106.86,186.67 -158.81,395.37 -189.76,530.72 -30.95,135.33 -40.9,197.29 -47.9,298.44 -7.01,101.15 -11.06,241.48 -13.09,314.78 -2.04,73.28 -2.04,79.53 -2.55,121.7 -0.52,42.18 -1.58,120.3 -2.09,219.77 -0.52,99.45 -0.52,220.27 -0.85,1704.27 -0.32,1483.99 -0.99,4331.19 3.08,5847.57z"/>
  <g id="_3095197461680">
   <ellipse class="fil2 str1" cx="14305.38" cy="17089.29" rx="804.65" ry="942.1"/>
   <ellipse class="fil3 str1" cx="14302.46" cy="17085.06" rx="334.03" ry="503.52"/>
  </g>
  <ellipse class="fil4 str2" cx="13095.56" cy="15776.94" rx="265.18" ry="282.72"/>
  <path class="fil5 str3" d="M12870.27 16549.53c3.91,-67.95 9.31,-100.69 12.98,-122.06 3.66,-21.39 5.57,-31.42 8.44,-39.6 2.86,-8.18 6.68,-14.5 11.89,-20.61 5.19,-6.11 11.77,-11.99 17.39,-17.22 5.62,-5.24 10.3,-9.83 15.92,-13.98 5.62,-4.14 12.19,-7.84 20.04,-11.99 7.86,-4.14 16.98,-8.72 26.32,-12.2 9.33,-3.49 18.88,-5.91 29.6,-8.09 10.71,-2.18 22.58,-4.13 35.85,-6.09 13.26,-1.97 27.91,-3.93 43.52,-5.01 15.59,-1.1 32.14,-1.32 48.58,-1.1 16.45,0.22 32.77,0.86 46.78,3.48 14.01,2.61 25.67,7.21 35.65,13.32 9.97,6.1 18.25,13.73 24.82,21.15 6.58,7.41 11.47,14.62 17.19,21.92 5.73,7.3 12.32,14.72 15.81,22.91 3.51,8.16 3.93,17.12 4.88,27.8 0.96,10.69 2.43,23.11 4.36,73.52 1.92,50.39 4.27,138.76 5.82,278.52 1.55,139.75 2.3,330.89 2.12,499.98 -0.18,169.08 -1.28,316.11 -2.51,418.46 -1.23,102.36 -2.59,160.04 -4.95,196.52 -2.35,36.47 -5.69,51.74 -11.45,64.14 -5.75,12.41 -13.9,21.93 -21.89,30.15 -7.98,8.19 -15.77,15.06 -25.61,22.13 -9.83,7.05 -21.71,14.29 -34.89,19.83 -13.17,5.53 -27.66,9.34 -45.91,12.29 -18.25,2.94 -40.28,5.03 -61.8,5.62 -21.53,0.58 -42.56,-0.33 -62.59,-2.8 -20.04,-2.48 -39.11,-6.53 -59.79,-14.19 -20.71,-7.65 -43.04,-18.9 -57.39,-36.16 -14.36,-17.27 -20.74,-40.53 -25.67,-62.6 -4.94,-22.09 -8.44,-42.97 -13.29,-76.08 -4.84,-33.12 -11.04,-78.48 -15.25,-145.25 -4.22,-66.78 -6.44,-154.97 -7.14,-248.45 -0.7,-93.48 0.15,-192.25 2.65,-295.46 2.5,-103.21 6.64,-210.87 9.92,-316.28 3.28,-105.41 5.69,-208.58 9.6,-276.52z"/>
  <path class="fil4 str1" d="M6667.14 12066.86c-14.19,-39.54 -39.7,-105.52 -58.43,-150.96 -18.73,-45.44 -30.69,-70.32 -49.59,-92.97 -18.92,-22.64 -44.79,-43.06 -86.6,-67.18 -41.8,-24.15 -99.52,-52 -162.27,-52.28 -62.75,-0.29 -130.49,26.99 -177.02,48.15 -46.53,21.14 -71.84,36.16 -104.77,66.5 -32.94,30.35 -73.51,76.02 -107.02,123.83 -33.52,47.79 -59.98,97.68 -85.32,192.87 -25.35,95.18 -49.58,235.63 -12.56,338.29 37.01,102.67 135.29,167.57 287.45,229.81 152.14,62.23 358.19,121.84 549.62,203.89 191.43,82.04 368.24,186.51 474.73,373.18 106.47,186.66 142.63,455.49 147.21,679.1 4.57,223.62 -22.42,402.02 -55.78,537.83 -33.37,135.8 -73.14,229.02 -123.36,332.49 -50.23,103.47 -110.94,217.18 -200.35,319.16 -89.43,101.99 -207.55,192.22 -355.1,273.59 -147.55,81.37 -324.53,153.86 -527.76,147.49 -203.25,-6.37 -432.74,-91.59 -593.64,-239.47 -160.89,-147.87 -253.17,-358.4 -302.98,-544 -49.84,-185.62 -57.21,-346.31 -53.83,-434.86 3.37,-88.54 17.48,-104.92 111.21,-122.99 93.71,-18.06 267.04,-37.81 353.7,-44.17 86.66,-6.36 86.66,0.66 96.88,22.12 10.23,21.45 30.66,57.33 46.37,107.06 15.7,49.7 26.65,113.27 40.69,166.31 14.03,53.03 31.15,95.56 54.21,133.64 23.06,38.08 52.09,71.74 104.93,111.62 52.83,39.88 129.48,86.01 228.42,75.98 98.93,-10.04 220.14,-76.22 308.05,-148.79 87.91,-72.57 142.54,-151.51 177.23,-239.05 34.69,-87.56 49.45,-183.71 53,-260.64 3.55,-76.93 -4.11,-134.62 -25.5,-200.34 -21.39,-65.73 -56.52,-139.48 -147.81,-202.69 -91.3,-63.21 -238.79,-115.88 -392.03,-168.63 -153.26,-52.76 -312.26,-105.58 -446.82,-193.66 -134.57,-88.08 -244.69,-211.41 -313.75,-322.77 -69.07,-111.36 -97.1,-210.74 -113.45,-346.17 -16.36,-135.44 -21.05,-306.92 -10.47,-453.72 10.57,-146.81 36.4,-268.97 82.92,-393.86 46.52,-124.91 113.72,-252.58 183.08,-356.24 69.33,-103.67 140.83,-183.32 224.59,-252.77 83.73,-69.46 179.75,-128.68 284.95,-176.67 105.19,-48.01 219.56,-84.79 300.25,-103.16 80.68,-18.39 127.66,-18.39 196.09,-13.29 68.42,5.1 158.3,15.33 231.84,38.82 73.53,23.48 130.72,60.26 189.96,107.25 59.24,46.97 120.51,104.15 175.67,179.73 55.15,75.57 104.16,169.53 133.78,244.09 29.62,74.55 39.84,129.71 46.99,201.21 7.15,71.48 11.23,159.3 10.21,218.54 -1.02,59.24 -7.16,89.88 -30.64,110.31 -23.49,20.41 -64.36,30.64 -130.74,43.92 -66.38,13.27 -158.3,29.6 -215.34,38.58 -57.06,8.95 -79.25,10.51 -95.47,11.55 -16.23,1.02 -26.5,1.48 -34.48,1.39 -8,-0.09 -13.69,-0.76 -18.2,-1.95 -4.52,-1.19 -7.85,-2.89 -11.97,-5.86 -4.13,-2.98 -9.08,-7.22 -14.4,-11.35 -5.32,-4.15 -11.05,-8.17 -15.32,-16.71 -4.26,-8.55 -7.09,-21.59 -21.26,-61.1z"/>
  <path class="fil4 str1" d="M8296.86 10740.02c273.29,-39.49 799.74,-112.55 1067.85,-149.8 268.11,-37.24 277.92,-38.66 304.74,-43.09 26.8,-4.44 70.65,-11.91 100.41,25.41 29.76,37.31 45.45,119.37 53.42,163.08 7.96,43.7 8.21,49 8.44,55.42 0.22,6.4 0.42,13.92 0.53,54.52 0.09,40.6 0.09,114.31 -0.85,163.51 -0.96,49.2 -2.88,73.92 -7.69,98.85 -4.82,24.91 -12.56,50.05 -21.25,74.1 -8.71,24.03 -18.39,46.95 -28.33,66.44 -9.95,19.47 -20.17,35.51 -36.88,50.02 -16.71,14.49 -39.93,27.48 -64.51,36.61 -24.59,9.11 -50.57,14.35 -88.84,22.78 -38.26,8.43 -88.82,20.03 -148.91,31.37 -60.08,11.32 -129.71,22.36 -216.61,33.84 -86.89,11.46 -191.04,23.34 -276.95,32.6 -85.94,9.25 -153.63,15.89 -219.8,25.97 -66.16,10.08 -130.81,23.63 -181.1,32.76 -50.28,9.11 -86.21,13.79 -106.37,19.05 -20.17,5.25 -24.6,11.05 -26.95,22.52 -2.35,11.46 -2.61,28.58 -2.78,86.34 -0.19,57.73 -0.25,156.08 -0.77,255.61 -0.55,99.51 -1.54,200.21 -3.67,288.23 -2.15,88.02 -5.43,163.36 -9.87,215.36 -4.45,51.98 -10.04,80.61 -10.86,95.26 -0.83,14.65 3.13,15.29 170.94,-3.95 167.81,-19.25 499.49,-58.4 670.92,-77.81 171.43,-19.42 182.63,-19.1 195.3,-15.15 12.66,3.94 26.82,11.52 41.14,25 14.31,13.49 28.78,32.92 40.3,50.19 11.51,17.28 20.06,32.41 28.79,52.48 8.72,20.08 17.6,45.09 22.05,64.34 4.44,19.24 4.44,32.74 4.61,58.08 0.16,25.33 0.48,62.51 0.98,100.69 0.49,38.17 1.14,77.31 0.17,108.42 -0.99,31.08 -3.64,54.13 -7.91,79.79 -4.28,25.66 -10.19,53.96 -15.94,78.97 -5.77,24.99 -11.36,46.72 -18.27,64.17 -6.91,17.43 -15.14,30.59 -23.37,42.44 -8.23,11.85 -16.46,22.36 -27.81,31.75 -11.35,9.38 -25.83,17.6 -39.14,21.56 -13.34,3.95 -25.51,3.61 -47.39,6.08 -21.89,2.46 -53.47,7.73 -83.24,11.68 -29.79,3.94 -57.77,6.59 -128.02,14.49 -70.25,7.89 -182.78,21.05 -283.47,32.9 -100.69,11.85 -189.53,22.36 -257.8,30.44 -68.28,8.05 -115.99,13.64 -154.82,17.26 -38.83,3.62 -68.78,5.27 -84.24,8.26 -15.48,2.97 -16.49,7.27 -16.77,14.3 -0.29,7.02 0.14,16.75 1.3,41.98 1.16,25.21 3.05,65.9 4.44,103.21 1.39,37.3 2.27,71.2 3.16,110.98 0.88,39.77 1.74,85.38 2.1,153.25 0.34,67.85 0.19,157.94 -0.4,243.02 -0.59,85.07 -1.61,165.11 -2.79,220.11 -1.17,54.98 -2.52,84.92 -5.04,110.66 -2.52,25.72 -6.22,47.25 -9.4,72.3 -3.2,25.06 -5.9,53.66 -6.73,71.99 -0.85,18.32 0.17,26.4 37.51,26.91 37.32,0.49 110.98,-6.56 191.04,-14.8 80.04,-8.25 166.48,-17.67 248.89,-25.4 82.4,-7.73 160.77,-13.8 248.73,-21.02 87.96,-7.24 185.49,-15.64 265.03,-22.19 79.55,-6.58 141.1,-11.28 182.65,-14.98 41.52,-3.71 63.05,-6.38 83.58,-5.21 20.51,1.18 40.02,6.22 58.18,14.8 18.16,8.57 34.99,20.68 49.45,34.99 14.46,14.29 26.55,30.76 35.65,45.22 9.08,14.46 15.12,26.91 18.33,41.55 3.2,14.61 3.52,31.44 4.03,65.08 0.5,33.62 1.18,84.08 1.97,136.17 0.79,52.07 1.7,105.8 0.41,152.23 -1.29,46.43 -4.81,85.58 -10.9,121.01 -6.09,35.44 -14.8,67.17 -27.84,93.53 -13.05,26.34 -30.44,47.33 -46.29,63.44 -15.87,16.12 -30.21,27.36 -57.06,36.58 -26.86,9.2 -66.27,16.38 -135.34,25.07 -69.08,8.69 -167.83,18.93 -289.35,29.17 -121.52,10.23 -265.81,20.45 -394.74,30.95 -128.94,10.49 -242.54,21.24 -358.31,31.52 -115.77,10.29 -233.71,20.11 -328.12,27.78 -94.41,7.66 -165.28,13.18 -211.13,12.39 -45.88,-0.79 -66.74,-7.89 -86.82,-16.94 -20.07,-9.06 -39.38,-20.07 -57.29,-32.86 -17.91,-12.81 -34.44,-27.36 -45.27,-43.7 -10.82,-16.35 -15.94,-34.46 -21.65,-52.95 -5.71,-18.52 -12.02,-37.42 -15.56,-57.29 -3.54,-19.89 -4.33,-40.76 -4.92,-73.62 -0.59,-32.88 -0.99,-77.77 -1.87,-163.04 -0.88,-85.26 -2.26,-210.91 -2.26,-345.63 0,-134.72 1.36,-278.53 3.59,-430.03 2.23,-151.49 5.32,-310.7 8.06,-458.25 2.74,-147.57 5.13,-283.5 8.91,-461.88 3.76,-178.37 8.89,-399.21 12.32,-580.15 3.42,-180.94 5.12,-322 7.86,-502.07 2.74,-180.09 6.51,-399.22 10.1,-573.82 3.59,-174.62 7.02,-304.73 13.7,-388.6 6.67,-83.89 16.6,-121.55 26.19,-151.51 9.59,-29.96 18.82,-52.2 33.55,-75.14 14.72,-22.95 34.92,-46.57 51.7,-62.65 16.77,-16.1 30.13,-24.67 44.34,-33.05 14.2,-8.39 29.27,-16.61 42.63,-21.75 13.35,-5.13 24.98,-7.18 40.89,-11.15 15.9,-3.98 36.07,-9.87 309.38,-49.35z"/>
  <path class="fil4 str1" d="M12770.48 11380.09c3.82,68.32 5.57,130.33 4.49,173.58 -1.1,43.24 -5.04,67.7 -12.68,84.51 -7.66,16.82 -19.01,26 -32.13,34.95 -13.11,8.95 -27.96,17.68 -54.84,24.45 -26.88,6.77 -65.78,11.58 -152.96,19.45 -87.21,7.85 -222.71,18.78 -300.3,22.6 -77.61,3.8 -97.33,0.52 -110.97,-3.56 -13.65,-4.08 -21.19,-8.95 -27.92,-17.4 -6.73,-8.46 -12.64,-20.51 -17.8,-32.4 -5.17,-11.89 -9.62,-23.63 -13.43,-37.78 -3.8,-14.16 -6.97,-30.72 -11.24,-54.23 -4.27,-23.53 -9.64,-54.01 -15.14,-88.66 -5.53,-34.67 -11.19,-73.55 -19,-114.34 -7.82,-40.8 -17.81,-83.55 -33.98,-125.8 -16.18,-42.25 -38.54,-84.02 -66.81,-122.47 -28.29,-38.46 -62.47,-73.62 -102.9,-98.59 -40.45,-24.96 -87.14,-39.75 -124.29,-48.13 -37.15,-8.38 -64.76,-10.34 -92.86,-8.85 -28.12,1.46 -56.73,6.39 -86.47,14.28 -29.76,7.88 -60.66,18.73 -97.15,35.32 -36.5,16.58 -78.58,38.93 -112.29,60.79 -33.7,21.84 -59,43.18 -82.66,64.05 -23.68,20.86 -45.71,41.24 -65.1,62.1 -19.4,20.85 -36.18,42.21 -56.07,70.14 -19.89,27.92 -42.89,62.42 -59.48,90.52 -16.61,28.08 -26.81,49.75 -38.47,73.91 -11.68,24.14 -24.84,50.75 -35.68,78.35 -10.86,27.59 -19.39,56.19 -25.64,81.98 -6.25,25.78 -10.2,48.78 -17.26,80.83 -7.07,32.02 -17.26,73.09 -26.14,112.35 -8.88,39.26 -16.44,76.71 -22.18,109.14 -5.74,32.43 -9.64,59.83 -12.73,85.67 -3.11,25.85 -5.4,50.13 -9.54,80.98 -4.15,30.85 -10.15,68.29 -15.58,106.57 -5.43,38.29 -10.3,77.43 -13.72,124.72 -3.43,47.29 -5.44,102.7 -7.61,183.32 -2.16,80.62 -4.51,186.45 -6.17,286.02 -1.67,99.57 -2.64,192.92 -1.16,282.04 1.47,89.12 5.4,174.06 9.81,248.02 4.39,73.94 9.23,136.94 14.44,198.7 5.2,61.77 10.77,122.31 21.05,187.03 10.27,64.7 25.29,133.56 52.81,204.1 27.5,70.53 67.51,142.73 113.92,200.77 46.4,58.04 99.19,101.9 160.05,130.51 60.86,28.61 129.76,41.94 188.4,43.89 58.63,1.94 106.98,-7.5 150.89,-20.27 43.89,-12.78 83.36,-28.89 125.88,-57.76 42.5,-28.89 88.08,-70.54 123.93,-109.97 35.84,-39.43 61.96,-76.65 101.28,-151.17 39.31,-74.53 91.81,-186.36 122.45,-265.11 30.62,-78.75 39.36,-124.41 47.63,-164.24 8.26,-39.83 16.03,-73.82 27.21,-98.6 11.18,-24.78 25.77,-40.31 43.75,-50.02 17.99,-9.72 39.37,-13.61 73.39,-16.52 34.03,-2.92 80.68,-4.85 155.94,-10.79 75.26,-5.93 179.11,-15.84 237.5,-20.8 58.37,-4.96 71.29,-4.96 82.65,-1.69 11.36,3.26 21.16,9.8 32.53,17.53 11.35,7.71 24.27,16.6 32,23.79 7.72,7.17 10.25,12.61 12.96,44.31 2.71,31.69 5.57,89.64 3.68,136.98 -1.89,47.33 -8.52,84.08 -14.31,121.38 -5.8,37.3 -10.76,75.15 -16.08,108.8 -5.34,33.63 -11.06,63.06 -33.02,132.57 -21.96,69.49 -60.2,179.05 -103.36,278.5 -43.17,99.43 -91.3,188.72 -139.67,266.14 -48.36,77.42 -96.96,142.95 -145.24,201.6 -48.3,58.65 -96.3,110.42 -142.09,152.93 -45.82,42.51 -89.43,75.74 -140.15,111.16 -50.71,35.43 -108.51,73.04 -175.03,106.56 -66.52,33.51 -141.78,62.93 -211.84,84.18 -70.08,21.25 -134.97,34.34 -182.4,41.16 -47.45,6.8 -77.44,7.34 -124.34,6.8 -46.89,-0.56 -110.69,-2.18 -174.21,-11.17 -63.54,-9 -126.78,-25.34 -188.94,-48.23 -62.18,-22.89 -123.25,-52.32 -175.05,-83.37 -51.81,-31.07 -94.35,-63.78 -139.06,-101.91 -44.71,-38.14 -91.61,-81.75 -131.96,-126.97 -40.35,-45.23 -74.15,-92.11 -102.77,-134.88 -28.63,-42.78 -52.08,-81.47 -82.07,-147.13 -29.99,-65.67 -66.54,-158.3 -95.71,-240.04 -29.17,-81.75 -50.99,-152.6 -66.26,-213.08 -15.26,-60.5 -23.98,-110.63 -32.97,-169.75 -9,-59.13 -18.28,-127.27 -27,-205.18 -8.73,-77.94 -16.91,-165.68 -25.25,-298.05 -8.33,-132.39 -16.84,-309.43 -13.99,-485.45 2.84,-176.02 17.01,-351.02 28.36,-487.05 11.34,-136.05 19.86,-233.13 36.16,-362.8 16.31,-129.66 40.42,-291.91 83.71,-449.2 43.29,-157.3 105.77,-309.62 165.04,-434 59.25,-124.38 115.3,-220.83 176.23,-312.7 60.92,-91.89 126.74,-179.21 211.95,-265.61 85.2,-86.4 189.82,-171.88 288.53,-234.99 98.7,-63.11 191.52,-103.86 276.14,-134.13 84.6,-30.28 160.99,-50.09 239.09,-61.13 78.09,-11.04 157.9,-13.29 232.88,-6.51 74.98,6.79 145.17,22.63 209.3,38.78 64.1,16.14 122.17,32.6 180.4,59.81 58.21,27.18 116.58,65.13 171.07,110.87 54.49,45.73 105.1,99.24 152.78,163.46 47.67,64.23 92.43,139.14 125.05,208.78 32.62,69.63 53.11,133.99 73.11,206.98 19.99,72.97 39.53,154.58 52.24,232.69 12.72,78.12 18.61,152.75 22.44,221.08z"/>
  <path class="fil4 str1" d="M13143.95 10888.14c-73.48,6.85 -172.85,15.84 -223.38,-47.55 -50.54,-63.38 -52.26,-199.16 -51.84,-290.86 0.4,-91.72 2.92,-139.35 4.62,-174.01 1.69,-34.68 2.52,-56.38 6.67,-79.07 4.13,-22.69 11.57,-46.38 19.04,-66.92 7.45,-20.56 14.94,-37.94 25.73,-55.53 10.8,-17.58 24.87,-35.35 36.84,-48.03 11.98,-12.7 21.84,-20.3 32.96,-27.06 11.12,-6.75 23.53,-12.68 37.76,-18.59 14.21,-5.9 30.27,-11.83 46.32,-16.89 16.05,-5.07 32.09,-9.31 65.02,-17.07 32.93,-7.78 82.75,-19.09 157.96,-32.3 75.23,-13.22 175.87,-28.35 305.02,-48.2 129.14,-19.88 286.79,-44.5 430.61,-66.09 143.84,-21.61 273.84,-40.17 394.99,-56.58 121.16,-16.42 233.46,-30.67 342.3,-46.65 108.86,-15.99 214.24,-33.7 287.01,-43.84 72.79,-10.15 112.96,-12.75 148.95,-13.99 36,-1.23 67.85,-1.12 93.28,3.5 25.42,4.62 44.45,13.77 59.09,23.11 14.67,9.32 24.95,18.85 33.36,31.97 8.43,13.1 15.01,29.77 22.45,50.73 7.44,20.95 15.77,46.16 22.44,78.12 6.68,31.95 11.69,70.63 13.08,129.14 1.41,58.5 -0.83,136.82 -3.63,189.08 -2.8,52.26 -6.19,78.45 -10.27,102.53 -4.08,24.08 -8.86,46.06 -14.37,66.06 -5.49,19.98 -11.68,38.01 -18,53.94 -6.31,15.93 -12.73,29.78 -23.74,43.46 -11.02,13.69 -26.61,27.23 -45.65,38.61 -19.02,11.38 -41.51,20.63 -62.33,28.21 -20.8,7.56 -39.96,13.49 -66.3,18.13 -26.32,4.64 -59.84,8.02 -88.86,11.12 -29,3.09 -53.49,5.92 -81.38,8.6 -27.87,2.67 -59.14,5.19 -99.99,9.28 -40.83,4.08 -91.24,9.72 -138.84,14.8 -47.59,5.05 -92.39,9.57 -134.92,13.93 -42.52,4.36 -82.78,8.59 -110.1,12.95 -27.32,4.36 -41.69,8.88 -49.58,13.67 -7.88,4.78 -9.29,9.85 -10.42,15.2 -1.13,5.36 -1.96,10.99 -1.38,75.09 0.59,64.11 2.63,186.68 1.09,345.99 -1.53,159.3 -6.62,355.31 -12.3,580.23 -5.66,224.91 -11.89,478.7 -15.57,736.19 -3.69,257.48 -4.83,518.65 -9.31,852.91 -4.47,334.26 -12.3,741.64 -17.03,957.83 -4.74,216.17 -6.38,241.17 -9.87,268.23 -3.48,27.05 -8.8,56.15 -16.4,83.82 -7.57,27.67 -17.41,53.9 -30.53,78.09 -13.11,24.17 -29.51,46.3 -53.08,67.62 -23.57,21.31 -54.3,41.8 -76.03,53.28 -21.72,11.47 -34.43,13.93 -58,15.79 -23.56,1.84 -58,3.06 -116.2,2.04 -58.2,-1.02 -140.19,-4.3 -192.05,-10.04 -51.84,-5.73 -73.56,-13.93 -93.03,-24.59 -19.47,-10.66 -36.69,-23.77 -51.04,-37.29 -14.34,-13.53 -25.81,-27.48 -36.27,-43.06 -10.45,-15.57 -19.87,-32.79 -27.33,-50.08 -7.45,-17.3 -12.93,-34.67 -17.74,-53.84 -4.79,-19.16 -8.91,-40.09 -11.74,-59.48 -2.81,-19.4 -4.33,-37.26 -4.96,-54.23 -0.63,-16.96 -0.39,-33.05 -0.59,-51.87 -0.18,-18.84 -0.82,-40.4 6.1,-465.93 6.91,-425.53 21.39,-1255 34.63,-1839.31 13.23,-584.31 25.24,-923.43 31.67,-1096.42 6.45,-173.01 7.33,-179.87 7.52,-185.92 0.18,-6.06 -0.33,-11.32 -0.84,-17.88 -0.49,-6.57 -0.99,-14.48 -8.49,-16.43 -7.5,-1.94 -21.99,2.06 -71.72,11.26 -49.72,9.19 -134.7,23.57 -196.02,33.58 -61.31,10.01 -98.99,15.64 -141.64,20.8 -42.64,5.15 -90.25,9.86 -163.75,16.71z"/>
  <path class="fil4 str1" d="M15680.49 10165.68c10.36,-267.31 19.12,-354.49 83.38,-413.6 64.27,-59.13 184.04,-90.2 275.82,-108.62 91.77,-18.44 155.54,-24.24 203.77,-26.34 48.24,-2.12 80.92,-0.53 108.28,5.44 27.36,5.97 49.4,16.33 65.99,28.72 16.62,12.39 27.78,26.79 37.84,45.6 10.06,18.8 19.03,41.99 27.2,65.98 8.17,23.99 15.56,48.75 20.03,79.06 4.49,30.32 6.08,66.15 -3.79,708.24 -9.87,642.08 -31.16,1890.41 -41.88,2518.71 -10.71,628.29 -10.83,636.55 -9.5,641.04 1.35,4.48 4.13,5.18 29.42,2.77 25.29,-2.43 73.09,-7.95 118.8,-12.96 45.7,-5.01 89.32,-9.48 150.89,-14.28 61.59,-4.79 141.15,-9.91 237.44,-17.09 96.29,-7.19 209.32,-16.47 293.4,-23.4 84.08,-6.94 139.17,-11.54 189.36,-15.81 50.2,-4.28 95.5,-8.22 139.75,-12.39 44.27,-4.16 87.51,-8.52 125.03,-11.44 37.54,-2.92 69.35,-4.41 94.29,-4.28 24.93,0.12 42.98,1.82 59.45,6.65 16.49,4.82 31.41,12.74 44.7,22.16 13.3,9.4 24.94,20.28 34.77,31.75 9.82,11.46 17.8,23.51 23.66,38.61 5.88,15.09 9.62,33.23 15.71,58.72 6.11,25.49 14.56,58.34 21.04,86.41 6.49,28.08 11.01,51.4 13.83,80.57 2.81,29.15 3.91,64.17 3.52,106.39 -0.37,42.21 -2.24,91.64 -4.45,130.99 -2.21,39.33 -4.78,68.58 -9.81,97.02 -5.02,28.43 -12.51,56.02 -21.64,81.52 -9.12,25.49 -19.87,48.89 -33.91,70.41 -14.03,21.51 -31.35,41.17 -48.2,54.97 -16.84,13.79 -33.2,21.76 -56.14,29.24 -22.92,7.49 -52.39,14.5 -124.44,23.39 -72.05,8.89 -186.65,19.66 -346.66,32.29 -160,12.64 -365.38,27.13 -617.05,48.21 -251.65,21.08 -549.62,48.72 -713.28,61.57 -163.65,12.84 -193.01,10.88 -221.27,6.76 -28.24,-4.13 -55.37,-10.39 -83.25,-23.88 -27.87,-13.48 -56.5,-34.19 -78.12,-58.45 -21.63,-24.26 -36.26,-52.07 -47.07,-76.32 -10.79,-24.25 -17.78,-44.92 -22.3,-67.05 -4.52,-22.13 -6.54,-45.72 -10.16,-87.43 -3.62,-41.73 -8.82,-101.6 -10.86,-160.08 -2.04,-58.48 -0.91,-115.6 0.17,-210.22 1.08,-94.63 2.14,-226.79 5.01,-370.21 2.89,-143.42 7.61,-298.11 10.23,-479.82 2.62,-181.7 3.15,-390.42 8.92,-696.13 5.77,-305.72 16.78,-708.47 28.27,-1133.55 11.49,-425.08 23.45,-872.53 33.81,-1139.84z"/>
  <g id="_3095197455824">
   <path class="fil5 str4" d="M12133.36 16404.73c-14.43,-8.68 -42.18,-25.33 -74.68,-40.78 -32.51,-15.47 -69.78,-29.73 -103.34,-39.38 -33.56,-9.65 -63.42,-14.66 -97.24,-16.91 -33.83,-2.25 -71.61,-1.71 -107.94,1.46 -36.33,3.17 -71.22,8.98 -108.53,20.74 -37.32,11.74 -77.05,29.43 -108.4,46.43 -31.37,17 -54.34,33.33 -77.68,52.37 -23.35,19.04 -47.09,40.81 -68.78,65 -21.68,24.18 -41.34,50.77 -59.99,77.29 -18.67,26.53 -36.36,52.97 -53.82,83.02 -17.48,30.06 -34.73,63.7 -50.12,101.19 -15.39,37.49 -28.9,78.81 -42.28,127.55 -13.4,48.72 -26.65,104.86 -34.06,146.84 -7.41,41.96 -8.95,69.77 -9.99,110.18 -1.05,40.42 -1.56,93.43 -0.79,141.4 0.77,47.94 2.86,90.82 5.34,127.73 2.46,36.91 5.32,67.82 11.43,102.39 6.11,34.57 15.46,72.79 29.37,113.2 13.9,40.42 32.35,83.03 51.45,119.68 19.11,36.64 38.86,67.31 67.31,102.98 28.46,35.65 65.63,76.28 96.04,104.23 30.4,27.94 54.07,43.19 78.24,55.54 24.16,12.34 48.86,21.77 75.82,30.64 26.94,8.84 56.14,17.12 85.48,21.77 29.34,4.66 58.82,5.68 84.15,6.14 25.32,0.45 46.53,0.31 65.92,-0.85 19.38,-1.16 36.95,-3.35 55.31,-7.3 18.36,-3.94 37.49,-9.62 56.75,-17.12 19.25,-7.5 38.65,-16.8 63.66,-28.88 25.01,-12.09 55.65,-26.94 76.79,-40.44 21.13,-13.52 32.77,-25.66 42.35,-36.78 9.55,-11.12 17.04,-21.2 23.64,-30.9 6.59,-9.7 12.27,-19 17.31,-27.01 5.04,-8.02 9.44,-14.74 16.29,-6.85 6.85,7.87 16.16,30.38 27.67,52.23 11.5,21.84 25.19,43.03 38.9,60.23 13.7,17.18 27.4,30.37 43.05,40.07 15.64,9.68 33.21,15.9 55.84,19.91 22.63,4 50.28,5.81 74.72,6.34 24.43,0.51 45.62,-0.26 63.98,-2.72 18.36,-2.46 33.87,-6.59 46.15,-13.06 12.28,-6.46 21.33,-15.26 33.1,-26.24 11.76,-10.98 26.23,-24.18 35.42,-36.38 9.17,-12.2 13.05,-23.42 14.14,-75.79 1.06,-52.38 -0.68,-145.92 -2.31,-229.8 -1.64,-83.89 -3.17,-158.13 -2.72,-241.37 0.43,-83.25 2.85,-175.51 6.23,-285.88 3.38,-110.39 7.72,-238.87 12.07,-372.19 4.34,-133.32 8.71,-271.47 11.61,-402.36 2.9,-130.91 4.33,-254.56 4.33,-356.24 0,-101.68 -1.43,-181.39 -3.12,-233.56 -1.7,-52.17 -3.64,-76.79 -10.84,-97.04 -7.23,-20.26 -19.72,-36.14 -31.91,-48.88 -12.19,-12.76 -24.07,-22.42 -37.13,-31.28 -13.07,-8.88 -27.32,-16.98 -45.69,-21.73 -18.38,-4.75 -40.88,-6.15 -61.9,-5.44 -21.03,0.69 -40.6,3.48 -59.19,7.17 -18.59,3.7 -36.22,8.29 -54.26,17.03 -18.05,8.74 -36.53,21.62 -53.29,36.46 -16.77,14.81 -31.85,31.58 -43.08,48.53 -11.24,16.95 -18.65,34.09 -23.6,48.41 -4.97,14.31 -7.46,25.81 -8.71,91.1 -1.25,65.27 -1.25,184.33 -1.47,286.48 -0.21,102.16 -0.63,187.43 -0.74,237.08 -0.11,49.63 0.11,63.67 -1.11,70.77 -1.24,7.1 -3.93,7.28 -6.59,6.74 -2.66,-0.54 -5.31,-1.79 -7.18,-2.76 -1.87,-0.99 -2.97,-1.72 -17.38,-10.4z"/>
   <ellipse class="fil1 str5" cx="11854.94" cy="17176.26" rx="301.5" ry="467.65"/>
  </g>
  <path class="fil6 str6" d="M8178.91 16360.14c-9.46,-22.6 -19.3,-55.26 -29.77,-79.01 -10.47,-23.76 -21.57,-38.62 -32.58,-50.86 -11.03,-12.24 -21.96,-21.88 -45.7,-31.91 -23.75,-10.04 -60.31,-20.49 -100.85,-23.34 -40.55,-2.85 -85.08,1.87 -115.75,8.24 -30.68,6.36 -47.51,14.35 -69.4,30.51 -21.9,16.16 -48.86,40.48 -71.14,65.94 -22.29,25.45 -39.89,52.03 -48.51,102.01 -8.63,49.97 -8.29,123.35 16.32,178.02 24.61,54.68 73.49,90.66 164.8,126.52 91.31,35.84 225.05,71.57 349.1,116.36 124.05,44.78 238.41,98.64 310.83,196.05 72.4,97.41 102.85,238.38 109.11,356.37 6.25,117.99 -11.68,212.99 -27.1,287.38 -15.43,74.39 -28.32,128.15 -55.42,187.87 -27.11,59.72 -68.4,125.39 -126.29,184.29 -57.89,58.9 -132.36,111.04 -236.74,149.75 -104.39,38.71 -238.68,64 -372.52,48.24 -133.84,-15.76 -267.22,-72.58 -362.23,-152.25 -95,-79.67 -151.63,-182.2 -183.81,-274.53 -32.18,-92.33 -39.93,-174.47 -35.55,-227.9 4.37,-53.43 20.86,-78.17 70.1,-95 49.23,-16.84 131.22,-25.76 177.94,-27.25 46.71,-1.49 58.15,4.47 72.82,18.55 14.65,14.09 32.52,36.3 46.46,65.45 13.93,29.14 23.94,65.21 34.15,92.54 10.21,27.32 20.61,45.89 35.37,63.13 14.74,17.24 33.84,33.15 66.66,54.06 32.82,20.91 79.37,46.84 141.54,52.76 62.15,5.92 139.94,-8.16 199.38,-38.71 59.43,-30.55 100.52,-77.55 121.08,-129.76 20.56,-52.21 20.59,-109.61 18.07,-153.67 -2.54,-44.06 -7.64,-74.8 -22.29,-106.86 -14.64,-32.07 -38.82,-65.48 -99.65,-97.6 -60.83,-32.11 -158.31,-62.93 -259.77,-93.95 -101.46,-31.03 -206.89,-62.26 -289.34,-111.11 -82.45,-48.86 -141.91,-115.33 -181.54,-174.93 -39.64,-59.61 -59.45,-112.36 -73.78,-183.3 -14.32,-70.95 -23.15,-160.08 -20.07,-236.91 3.08,-76.83 18.06,-141.34 45.56,-208.65 27.5,-67.3 67.51,-137.39 111.29,-193.65 43.77,-56.26 91.29,-98.68 147.03,-138.33 55.73,-39.66 119.67,-76.54 189.46,-100.19 69.78,-23.65 145.43,-34.06 198.68,-37.6 53.24,-3.55 84.08,-0.21 128.6,6.39 44.52,6.59 102.69,16.43 150.25,31.82 47.55,15.39 84.48,36.33 118.96,59.88 34.46,23.54 66.47,49.69 96.79,86.47 30.32,36.78 58.93,84.18 78.79,121.11 19.85,36.94 30.93,63.41 43.7,98.49 12.76,35.08 27.22,78.77 32.41,108.77 5.19,30.01 1.1,46.33 -5.06,63.85 -6.16,17.51 -14.42,36.23 -28.89,56.18 -14.46,19.95 -35.13,41.12 -63.82,53.82 -28.7,12.71 -65.41,16.92 -100.47,21.56 -35.08,4.63 -68.49,9.68 -90.49,9.48 -22,-0.21 -32.57,-5.67 -39.18,-9.46 -6.62,-3.78 -9.29,-5.91 -16.77,-13.76 -7.49,-7.86 -19.79,-21.45 -27.78,-33.02 -8,-11.58 -11.68,-21.16 -18.06,-32.2 -6.38,-11.05 -15.47,-23.56 -24.93,-46.15z"/>
  <path class="fil7 str7" d="M8838.12 16982.79c-0.26,121.72 -0.68,364.39 0.52,497.71 1.17,133.33 3.97,157.3 7.81,182.57 3.83,25.27 8.72,51.86 16.89,83.81 8.16,31.96 19.62,69.26 33.9,105.49 14.26,36.22 31.33,71.34 52.43,104.27 21.1,32.93 46.23,63.66 71.35,86.35 25.11,22.67 50.25,37.31 75.67,50.72 25.43,13.4 51.17,25.58 78.14,31.89 26.97,6.29 55.19,6.73 89.66,5.87 34.46,-0.85 75.18,-2.97 107.54,-6.14 32.34,-3.18 56.3,-7.44 78.46,-13.47 22.16,-6.04 42.53,-13.9 57.6,-23.12 15.05,-9.23 24.81,-19.83 32.45,-31.38 7.64,-11.57 13.14,-24.1 16.11,-38.51 2.97,-14.43 3.41,-30.75 2.85,-50.78 -0.57,-20.04 -2.14,-43.77 -5.24,-67.67 -3.13,-23.91 -7.83,-47.99 -12.52,-68.09 -4.68,-20.13 -9.39,-36.3 -15.25,-50.12 -5.86,-13.82 -12.9,-25.31 -21.34,-32.54 -8.46,-7.22 -18.34,-10.17 -30.56,-12.22 -12.22,-2.04 -26.79,-3.14 -45.18,-3.94 -18.41,-0.8 -40.62,-1.3 -58.88,-1.79 -18.28,-0.5 -32.59,-0.99 -44.37,-4.57 -11.81,-3.58 -21.05,-10.25 -31.48,-21.79 -10.44,-11.54 -22.04,-27.96 -30.98,-44.12 -8.95,-16.18 -15.26,-32.1 -18.59,-99.05 -3.32,-66.96 -3.66,-184.94 -4.05,-305.39 -0.4,-120.47 -0.84,-243.39 -1.1,-309.45 -0.28,-66.08 -0.4,-75.26 1.86,-85.11 2.24,-9.87 6.83,-20.4 13.64,-26.11 6.8,-5.71 15.79,-6.58 50.53,-8.06 34.72,-1.48 95.16,-3.56 130.69,-6.06 35.51,-2.52 46.07,-5.48 55,-11.31 8.91,-5.83 16.18,-14.55 23.66,-24.48 7.47,-9.93 15.17,-21.07 22.69,-33.56 7.52,-12.5 14.83,-26.38 18.59,-53.18 3.74,-26.8 3.9,-66.57 2.83,-94.62 -1.07,-28.07 -3.39,-44.45 -8.21,-57.68 -4.83,-13.24 -12.19,-23.31 -21.64,-33.39 -9.45,-10.08 -20.99,-20.15 -32.54,-27.3 -11.55,-7.14 -23.11,-11.33 -44,-13.11 -20.9,-1.8 -51.13,-1.18 -86,-0.22 -34.86,0.94 -74.33,2.2 -95.52,1.9 -21.19,-0.29 -24.09,-2.16 -26.58,-5.21 -2.49,-3.05 -4.6,-7.3 -5.4,-14.54 -0.82,-7.25 -0.37,-17.51 0.74,-65.21 1.11,-47.69 2.89,-132.84 3.03,-180.95 0.13,-48.12 -1.39,-59.19 -5.72,-71.26 -4.35,-12.08 -11.54,-25.12 -21.59,-39.42 -10.07,-14.32 -23.03,-29.91 -36.29,-41.59 -13.25,-11.69 -26.8,-19.49 -46.54,-24.7 -19.73,-5.21 -45.62,-7.84 -67.03,-7.53 -21.4,0.29 -38.31,3.52 -55.52,7.92 -17.23,4.37 -34.79,9.91 -51.16,20.23 -16.4,10.3 -31.65,25.39 -44.42,40.47 -12.8,15.08 -23.14,30.15 -30.23,48.61 -7.08,18.45 -10.92,40.31 -14.3,94.63 -3.41,54.3 -6.34,141.08 -7.84,186.03 -1.52,44.93 -1.57,48.01 -2.12,50.84 -0.58,2.81 -1.63,5.36 -3.58,8.15 -1.96,2.78 -4.81,5.8 -8.78,8.3 -3.98,2.51 -9.08,4.52 -15.45,5.39 -6.39,0.86 -14.03,0.61 -29.82,0.43 -15.79,-0.19 -39.7,-0.31 -56.11,0.32 -16.43,0.64 -25.32,2.01 -33.75,6.16 -8.43,4.13 -16.38,11.01 -24.53,20.35 -8.17,9.33 -16.55,21.08 -22,32.85 -5.45,11.77 -8.01,23.53 -9.91,35.36 -1.9,11.82 -3.19,23.68 -3.8,45.75 -0.62,22.06 -0.58,54.29 0.06,75.18 0.62,20.88 1.82,30.43 5.36,42.44 3.55,12.02 9.39,26.54 16.72,41.92 7.32,15.36 16.09,31.58 26.34,40.24 10.24,8.66 21.95,9.74 40.43,10.12 18.49,0.37 43.73,0 58.92,-0.17 15.18,-0.19 20.3,-0.19 24.18,-0.14 3.89,0.03 6.53,0.12 8.4,0.49 1.87,0.37 2.96,1.05 3.73,1.89 0.77,0.83 1.22,1.85 1.49,3 0.26,1.14 0.35,2.44 0.34,3.82 -0.02,1.36 -0.13,2.83 -0.22,3.94 -0.11,1.12 -0.2,1.91 -0.47,123.64z"/>
  <path class="fil7 str8" d="M9704.42 17606.97c1.48,18.58 4.35,54.37 9.77,85.49 5.43,31.12 13.43,57.56 22.25,86.75 8.8,29.18 18.43,61.14 31.38,91.98 12.94,30.84 29.18,60.58 50.53,90.46 21.34,29.88 47.79,59.9 75.33,81.94 27.53,22.03 56.18,36.07 85.92,46.82 29.74,10.73 60.6,18.17 95.16,22.3 34.56,4.13 72.84,4.97 107.54,2.77 34.69,-2.21 65.81,-7.45 94.32,-14.47 28.5,-7.03 54.38,-15.83 78.35,-27.4 23.96,-11.56 45.98,-25.89 67.47,-40.07 21.48,-14.18 42.42,-28.24 60.32,-42.83 17.89,-14.6 32.77,-29.75 43.78,-40.63 11.01,-10.87 18.17,-17.49 24.93,-16.65 6.75,0.82 13.07,9.09 19.14,20.1 6.06,11.01 11.83,24.8 18.45,39.4 6.6,14.58 14.04,30 23.55,41.85 9.5,11.83 21.05,20.1 34,25.47 12.94,5.37 27.27,7.86 44.06,8.68 16.8,0.82 36.09,0 61.14,-1.38 25.06,-1.39 55.91,-3.31 81.94,-9.23 26.02,-5.93 47.22,-15.84 65.27,-27.13 18.04,-11.29 32.9,-23.96 44.2,-35.93 11.3,-11.99 19,-23.28 26.33,-33.96 7.31,-10.69 14.23,-20.79 14.8,-49.85 0.56,-29.06 -5.23,-77.1 -9.37,-125.14 -4.15,-48.04 -6.62,-96.08 -4.55,-159.85 2.06,-63.78 8.69,-143.3 10.95,-239.59 2.24,-96.31 0.11,-209.39 -1.89,-337.43 -2.01,-128.07 -3.91,-271.1 -6.14,-364.73 -2.22,-93.64 -4.78,-137.87 -8.24,-168.71 -3.46,-30.84 -7.81,-48.29 -16.05,-63.85 -8.26,-15.57 -20.42,-29.28 -34.28,-41.42 -13.86,-12.15 -29.42,-22.73 -39.07,-29.12 -9.66,-6.39 -13.39,-8.57 -35.82,-9.81 -22.42,-1.25 -63.53,-1.56 -92.64,0.62 -29.12,2.18 -46.26,6.85 -61.98,13.55 -15.73,6.7 -30.06,15.41 -43.44,25.38 -13.4,9.96 -25.86,21.17 -35.51,33.33 -9.65,12.14 -16.5,25.21 -21.95,40.63 -5.46,15.42 -9.5,33.16 -12.45,194.32 -2.97,161.16 -4.84,465.73 -7.02,621.6 -2.18,155.86 -4.67,163.02 -12.92,181.7 -8.26,18.69 -22.27,48.91 -33.79,72.57 -11.52,23.67 -20.56,40.8 -25.46,49.37 -4.92,8.57 -5.72,8.6 -13.93,15.59 -8.22,6.99 -23.87,20.96 -39.92,33.67 -16.06,12.7 -32.54,24.16 -54.04,32.26 -21.5,8.09 -48.04,12.84 -74.29,13.12 -26.24,0.28 -52.23,-3.91 -74.84,-13.55 -22.63,-9.63 -41.9,-24.71 -58.65,-45.66 -16.77,-20.94 -31.01,-47.76 -38.96,-68.7 -7.96,-20.94 -9.65,-36.03 -11.77,-47.16 -2.13,-11.12 -4.72,-18.29 -6.9,-47.62 -2.18,-29.32 -3.97,-80.79 -4.75,-142.38 -0.78,-61.6 -0.58,-133.31 0.07,-236.1 0.63,-102.8 1.68,-236.7 1.48,-336.32 -0.22,-99.63 -1.7,-164.98 -8.34,-207.97 -6.63,-43 -18.4,-63.63 -31.41,-79.6 -13.02,-15.96 -27.27,-27.25 -37.97,-34.92 -10.7,-7.69 -17.86,-11.74 -26.94,-14.17 -9.08,-2.44 -20.09,-3.26 -35.3,-4.43 -15.2,-1.18 -34.61,-2.74 -50.37,-2.4 -15.76,0.32 -27.86,2.55 -41.81,6.25 -13.95,3.68 -29.75,8.84 -45.81,15.49 -16.05,6.64 -32.35,14.76 -46.3,23.99 -13.96,9.22 -25.56,19.55 -33.97,29.37 -8.41,9.81 -13.64,19.12 -18.51,30.35 -4.87,11.21 -9.39,24.34 -12.78,38.82 -3.4,14.46 -5.69,30.25 -7.16,63.86 -1.47,33.61 -2.1,85.02 -4.84,244.26 -2.74,159.25 -7.56,426.32 -9.98,562.13 -2.41,135.81 -2.41,140.38 -2.33,143.93 0.06,3.56 0.22,6.11 0.34,8.08 0.11,1.95 0.18,3.32 1.67,21.91z"/>
  <path class="fil8 str9" d="M19798.85 6553.6c-48.39,-1.31 -45.52,18.01 -39.93,53.8 5.58,35.77 13.89,88.03 22.01,145.94 8.12,57.89 16.05,121.44 20.38,253.52 4.33,132.09 5.03,332.69 5.88,608.77 0.85,276.07 1.85,627.63 3.09,1053.98 1.24,426.33 2.74,927.49 3.48,1420.87 0.74,493.37 0.74,978.97 1.61,1514.36 0.88,535.39 2.63,1120.55 3.5,1738.03 0.88,617.49 0.88,1267.28 -0.87,1912.72 -1.75,645.43 -5.24,1286.48 -9.62,1769.47 -4.36,482.99 -9.61,807.88 -20.09,1022.74 -10.47,214.85 -26.2,319.66 -59.39,457.65 -33.18,138 -83.85,309.18 -134.5,446.31 -50.65,137.11 -101.31,240.18 -152.84,330.13 -51.52,89.95 -103.93,166.82 -175.56,255.91 -71.61,89.07 -162.43,190.39 -250.65,276.86 -88.21,86.46 -173.8,158.07 -249.43,212.34 -75.61,54.28 -141.27,91.19 -174.11,109.66 -32.82,18.45 -32.82,18.45 65.66,18.3 98.48,-0.17 295.41,-0.51 422.95,-3.47 127.53,-2.95 185.67,-8.52 247.83,-17.92 62.16,-9.42 128.34,-22.65 197.73,-40.57 69.39,-17.94 141.99,-40.57 209.85,-65.64 67.85,-25.07 130.97,-52.59 205.84,-92.04 74.87,-39.47 161.52,-90.87 243.18,-146.45 81.66,-55.61 158.36,-115.4 222.47,-170.04 64.12,-54.66 115.67,-104.17 170.43,-163.93 54.76,-59.78 112.76,-129.8 166.29,-204.3 53.55,-74.52 102.62,-153.52 146.79,-234.41 44.19,-80.89 83.46,-163.68 116.36,-241.54 32.91,-77.86 59.44,-150.8 81.8,-224.05 22.38,-73.26 40.6,-146.82 55.39,-248.53 14.78,-101.72 26.13,-231.56 32.27,-568.01 6.16,-336.44 7.07,-879.45 7.97,-1518.16 0.91,-638.7 1.79,-1373.08 3.37,-2697.96 1.58,-1324.88 3.85,-3240.27 5.01,-4251.5 1.16,-1011.24 1.21,-1118.33 -5.35,-1215.39 -6.56,-97.06 -19.72,-184.08 -37.2,-263.59 -17.46,-79.53 -39.22,-151.57 -67.12,-228.12 -27.89,-76.56 -61.91,-157.63 -104.24,-233.6 -42.32,-75.99 -92.96,-146.89 -157.01,-217.52 -64.03,-70.64 -141.45,-141.01 -226.36,-206.08 -84.9,-65.08 -177.28,-124.86 -270.03,-174.54 -92.76,-49.68 -185.91,-89.26 -282.33,-120.02 -96.4,-30.76 -196.1,-52.68 -244.51,-53.98z"/>
  <path class="fil9 str10" d="M21486.43 8302c-42.87,-1.14 -40.32,15.6 -35.37,46.63 4.94,31.01 12.3,76.31 19.49,126.51 7.19,50.18 14.22,105.27 18.05,219.77 3.84,114.49 4.46,288.39 5.21,527.7 0.75,239.32 1.64,544.07 2.74,913.65 1.1,369.57 2.42,804 3.08,1231.69 0.66,427.68 0.66,848.63 1.43,1312.73 0.78,464.1 2.32,971.35 3.09,1506.62 0.78,535.27 0.78,1098.55 -0.77,1658.04 -1.54,559.5 -4.64,1115.2 -8.52,1533.88 -3.86,418.68 -8.5,700.31 -17.79,886.57 -9.27,186.23 -23.21,277.1 -52.6,396.71 -29.39,119.62 -74.27,268.01 -119.13,386.88 -44.86,118.86 -89.73,208.2 -135.37,286.18 -45.63,77.98 -92.06,144.61 -155.5,221.84 -63.42,77.21 -143.86,165.04 -222,240 -78.13,74.94 -153.93,137.02 -220.92,184.06 -66.98,47.05 -125.13,79.05 -154.21,95.06 -29.07,16 -29.07,16 58.15,15.86 87.22,-0.14 261.65,-0.44 374.61,-3 112.96,-2.56 164.46,-7.39 219.51,-15.54 55.06,-8.16 113.67,-19.63 175.13,-35.17 61.46,-15.55 125.77,-35.16 185.86,-56.9 60.1,-21.73 116,-45.58 182.32,-79.78 66.32,-34.22 143.06,-78.77 215.39,-126.96 72.33,-48.19 140.26,-100.03 197.04,-147.39 56.8,-47.39 102.46,-90.3 150.95,-142.11 48.51,-51.82 99.88,-112.51 147.29,-177.09 47.43,-64.6 90.89,-133.08 130.02,-203.2 39.13,-70.12 73.91,-141.89 103.05,-209.38 29.15,-67.49 52.65,-130.72 72.46,-194.22 19.82,-63.51 35.95,-127.27 49.05,-215.44 13.1,-88.18 23.15,-200.73 28.59,-492.38 5.45,-291.65 6.26,-762.36 7.06,-1316.02 0.8,-553.67 1.58,-1190.27 2.98,-2338.74 1.4,-1148.48 3.41,-2808.84 4.44,-3685.43 1.03,-876.6 1.07,-969.43 -4.74,-1053.56 -5.81,-84.15 -17.47,-159.57 -32.95,-228.5 -15.46,-68.94 -34.74,-131.39 -59.45,-197.74 -24.7,-66.37 -54.83,-136.65 -92.33,-202.51 -37.48,-65.87 -82.33,-127.32 -139.06,-188.56 -56.71,-61.23 -125.29,-122.23 -200.49,-178.63 -75.19,-56.42 -157.02,-108.24 -239.17,-151.3 -82.15,-43.07 -164.66,-77.38 -250.06,-104.04 -85.38,-26.67 -173.69,-45.67 -216.56,-46.79z"/>
 </g>
</svg>
