<svg version="1.1" xmlns="http://www.w3.org/2000/svg" style="display: block;" viewBox="0 0 2048 2048" width="26" height="26" preserveAspectRatio="none">
<path transform="translate(0,0)" fill="rgb(36,149,247)" d="M 213.45 0 L 1833.67 0 C 1849.31 2.53479 1861.93 3.58476 1877.56 7.59309 C 1929.21 21.3608 1974.46 52.6894 2005.52 96.1952 C 2027.59 126.667 2041.97 163.042 2045.91 200.237 C 2046.39 204.84 2046.97 211.034 2048 215.512 L 2048 1833.63 C 2045.77 1848.38 2044.44 1863.25 2040.6 1877.72 C 2018.9 1959.62 1951.23 2024.65 1868.41 2042.69 C 1857.31 2045.1 1845.29 2045.74 1834.73 2048 L 213.154 2048 C 201.127 2046.61 188.804 2044.59 177.015 2041.92 C 87.0614 2021.57 15.2835 1944.33 2.71811 1852.82 C 1.80298 1846.16 1.06387 1839.39 0 1832.73 L 0 217.302 C 1.97192 210.325 2.75315 193.186 4.39036 184.51 C 20.0198 101.685 82.377 33.0704 163.345 9.65733 C 180.132 4.80337 196.306 2.55681 213.45 0 z"/>
<path transform="translate(0,0)" fill="rgb(231,243,252)" d="M 1460.7 353.437 C 1462.55 353.298 1464.14 353.197 1466 353.189 C 1556.93 352.807 1622.29 420.762 1623.05 511.632 L 1623.01 1185.95 L 1623.02 1381.4 C 1623.02 1408.78 1622.9 1436.18 1622.89 1463.56 C 1622.87 1520.95 1600.76 1578.7 1559.84 1619.79 C 1528 1652.39 1486.79 1674.24 1441.95 1682.3 C 1417.2 1686.64 1357.83 1685.03 1330.14 1685.01 L 1135.19 1685.01 L 387.525 1685.02 C 348.595 1685.47 314.617 1674.23 284.617 1648.91 C 249.429 1619.27 227.693 1576.68 224.333 1530.79 C 223.102 1514.71 223.66 1491.11 223.629 1474.65 L 223.637 1372.72 L 223.779 1050.55 L 223.752 808.673 L 223.783 736.448 C 223.842 706.363 222.843 678.896 233.649 650.191 C 241.883 628.321 250.903 610.455 266.174 592.636 C 287.19 568.171 314.933 550.424 345.955 541.602 C 362.876 536.619 389.304 532.96 407.338 529.997 L 504.016 513.977 L 829.107 459.053 L 1256.47 386.645 L 1376.39 366.499 C 1402.08 362.065 1435.1 355.387 1460.7 353.437 z"/>
<path transform="translate(0,0)" fill="rgb(1,111,200)" d="M 942.879 805.342 C 1009.08 796.884 1042.73 853.634 1046.2 911.868 C 1047.56 934.749 1046.35 939.242 1023.83 940.871 C 987.117 943.526 982.776 951.854 978.032 910.061 C 965.842 848.934 898.038 883.841 887.979 927.029 C 882.685 949.759 874.809 976.7 875.55 999.01 C 876.972 1041.85 858.081 1165.47 926.462 1162.22 C 953.241 1160.45 972.241 1133.02 977.421 1108.87 C 983.332 1081.32 980.149 1080.82 1009.77 1079.3 C 1018.63 1078.68 1042.6 1074.24 1042.66 1086.02 C 1043.07 1158.35 982.381 1246.7 906.966 1236.17 C 809.626 1222.59 808.13 1098.73 810.532 1026.39 C 813.478 937.625 840.698 821.219 942.879 805.342 z"/>
<path transform="translate(0,0)" fill="rgb(1,111,200)" d="M 773.38 840.41 C 776.446 840.002 781.516 839.557 783.772 841.628 C 796.844 853.628 793.742 888.973 784.98 902.364 C 780.043 909.908 759.029 912.49 750.752 913.692 C 723.169 917.696 695.939 920.396 668.51 925.237 C 669.582 951.197 668.47 984.325 666.071 1010.17 C 684.995 1006.81 736.691 1001.18 756.897 999.218 C 771.564 997.795 772.956 1061.23 756.837 1065.56 C 747.054 1068.19 732.644 1069.52 720.839 1070.82 C 702.127 1072.81 683.432 1074.96 664.756 1077.27 C 667.59 1117.18 666.333 1138.27 663.847 1178.24 L 741.81 1170.78 C 752.929 1169.83 772.171 1166.51 781.646 1170.9 C 790.902 1179.96 787.603 1193.46 787.991 1204.94 C 789.459 1248.41 757.708 1240.74 725.492 1243.71 L 664.683 1249.07 C 643.03 1250.98 608.252 1260.6 606.198 1230.27 C 602.518 1175.93 607.312 1121.44 608.441 1067.15 L 609.837 947.617 C 610.177 929.897 608.352 883.738 618.481 867.684 C 622.751 860.915 644.438 858.291 653.474 857.288 C 693.298 852.863 733.411 844.073 773.38 840.41 z"/>
<path transform="translate(0,0)" fill="rgb(1,111,200)" d="M 486.878 876.279 C 512.77 873.592 529.838 878.35 549.209 898.391 C 562.401 912.039 580.02 954.762 564.688 971.479 C 559.663 976.958 533.248 978.503 524.727 979.496 C 515.16 976.305 514.402 953.776 507.218 948.147 C 477.784 925.084 443.479 957.281 445.174 991.076 C 444.355 1017.92 463.854 1024.7 488.118 1031.07 C 546.887 1046.48 573.745 1075.26 572.511 1138.56 C 571.203 1205.67 534.948 1273.89 457.756 1271.79 C 443.705 1270.59 430.779 1267.96 419.389 1259.27 C 388.647 1235.84 376.968 1194.72 383.892 1158.15 C 394.744 1155.86 403.421 1154.36 414.28 1153.01 C 446.976 1147.39 425.626 1184.76 449.33 1198.33 C 489.755 1222.52 522.677 1173.8 515.317 1136.62 C 508.761 1103.5 453.155 1102.79 426.926 1083.5 C 375.397 1045.61 384.007 968.987 415.512 921.394 C 432.031 896.439 458.577 881.052 486.878 876.279 z"/>
<path transform="translate(0,0)" fill="rgb(1,111,200)" d="M 1335.91 759.325 C 1361.02 756.137 1366.38 763.257 1367.86 788.1 C 1368.78 803.725 1368.25 819.767 1368.03 835.439 L 1366.48 918.148 C 1365.42 981.109 1365.94 1050.56 1362.09 1112.94 C 1382.71 1109.93 1404.14 1108.85 1425.28 1106.82 C 1444.26 1105 1468.16 1101.36 1487.17 1102.94 C 1494.89 1103.59 1498.91 1118.82 1499.52 1125.66 C 1500.93 1141.45 1501.88 1161.93 1492.04 1175.51 C 1486.55 1182.9 1468.8 1183.79 1460.07 1184.72 C 1416.84 1188.27 1373.1 1190.52 1330.28 1195.71 C 1312.05 1197.92 1291.56 1196.59 1289.72 1174.68 C 1286.88 1140.98 1290.29 1102.51 1290.81 1068.77 L 1294.43 903.813 C 1294.88 868.511 1293.74 833.388 1295.44 797.948 C 1296.95 766.408 1306.78 764.419 1335.91 759.325 z"/>
<path transform="translate(0,0)" fill="rgb(1,111,200)" d="M 1249.71 770.375 C 1262.71 769.249 1275.08 769.647 1276.7 786.843 C 1280.16 823.534 1279.56 848.073 1235.51 847.663 C 1226.23 847.577 1204.05 851.02 1193.99 852.697 C 1194.18 854.4 1194.33 856.108 1194.43 857.819 C 1195.43 873.559 1194.36 894.861 1193.9 911.05 L 1191.29 1003.57 C 1190.54 1044.1 1191.85 1084.64 1190.19 1125.5 C 1189.46 1143.59 1191.63 1184.63 1181.86 1199.59 C 1174.67 1210.61 1137.47 1211.61 1127.81 1201.45 C 1118.52 1191.68 1120.8 1171.58 1120.92 1158.5 C 1121.58 1059.82 1123.62 961.155 1127.04 862.533 C 1117.89 864.625 1107.1 867.009 1097.67 867.646 C 1079.89 868.848 1056.17 876.993 1053.56 851.303 C 1052.14 837.281 1051.44 802.016 1069.04 798.054 C 1089.66 793.413 1111.97 790.743 1133.02 787.657 L 1249.71 770.375 z"/>
<path transform="translate(0,0)" fill="rgb(1,111,200)" d="M 1010.9 1272.14 C 1017.52 1271.71 1028.51 1273.43 1029.26 1281.53 C 1034.05 1333.61 1028.58 1387.27 1027.69 1439.53 C 1027.46 1452.98 1028.79 1465.57 1028.85 1478.62 C 1022.05 1486.29 1013.69 1490.79 1003.13 1486.58 C 995.034 1483.36 993.911 1478.77 991.01 1471.29 C 976.257 1489.42 958.669 1492.58 936.934 1485.6 C 935.354 1484.82 933.794 1483.99 932.255 1483.13 C 873.151 1449.72 907.272 1295.02 991.877 1345.38 C 992.087 1331.77 991.211 1317.83 991.281 1304.21 C 991.377 1285.23 991.885 1277.1 1010.9 1272.14 z"/>
<path transform="translate(0,0)" fill="rgb(231,243,252)" d="M 962.148 1371.24 C 987.401 1367.37 992.562 1390.66 992.123 1410.55 C 991.724 1428.63 988.353 1443.23 970.868 1451.73 C 942.283 1454.21 939.461 1428.69 940.845 1406.41 C 941.802 1391.01 948.043 1378.12 962.148 1371.24 z"/>
<path transform="translate(0,0)" fill="rgb(1,111,200)" d="M 1177.63 1323.43 C 1248.72 1322.81 1263.41 1408.78 1229.16 1457.92 C 1218.16 1473.69 1199.36 1481.78 1180.52 1484.07 C 1093.69 1485.75 1084.93 1364.81 1150.57 1329.51 C 1159.04 1324.96 1168.19 1324.03 1177.63 1323.43 z"/>
<path transform="translate(0,0)" fill="rgb(231,243,252)" d="M 1175.78 1360.28 C 1189.54 1360.38 1199.14 1368.41 1202.66 1381.54 C 1208.84 1404.58 1206.29 1438.03 1179.26 1445.35 C 1162.36 1444.92 1151.67 1435.09 1149.11 1418.51 C 1145.8 1397.04 1150.28 1364.64 1175.78 1360.28 z"/>
<path transform="translate(0,0)" fill="rgb(1,111,200)" d="M 624.535 1292.28 C 657.779 1290.49 679.366 1305.48 684.227 1339.61 C 685.628 1349.44 667.861 1355.5 660.162 1354.61 C 642.827 1352.61 650.4 1325.33 627.384 1327.44 C 612.36 1328.51 602.888 1337.59 604.061 1352.48 C 604.244 1367.07 622.618 1374.17 636.28 1376.97 C 691.655 1388.36 701.428 1442.84 669.547 1483.34 C 659.72 1495.82 640.793 1502.35 623.771 1503.23 C 592.285 1503.55 570.31 1485.49 564.641 1454.54 C 561.394 1436.81 569.839 1436.72 584.656 1434.97 C 601.87 1432.94 596.874 1451.18 606.369 1459.11 C 617.063 1468.05 635.765 1467.2 644.731 1456.21 C 653.89 1444.88 653.855 1428.29 639.387 1421.54 C 610.604 1408.11 574.915 1406.66 568.952 1367.04 C 563.082 1328.03 585.405 1298.14 624.535 1292.28 z"/>
<path transform="translate(0,0)" fill="rgb(1,111,200)" d="M 865.961 1343.23 C 870.28 1342.88 884.42 1342.34 885.692 1348.2 C 893.856 1386 887.748 1424.11 889.532 1462.94 C 890.511 1484.25 888.102 1492.87 861.126 1490.14 C 857.297 1489.75 854.72 1481.87 853.344 1478.42 C 842.185 1487.55 830.844 1495.86 815.75 1495.58 C 777.024 1494.86 777.689 1447.95 778.157 1421.25 C 778.348 1408.8 775.97 1356.57 786.587 1350.37 C 831.886 1323.93 808.624 1418.81 814.913 1438.36 C 816.218 1442.42 817.757 1456.91 825.568 1457.76 C 872.273 1462.84 843.256 1378 855.291 1352.2 C 858.014 1346.36 860.266 1345.72 865.961 1343.23 z"/>
<path transform="translate(0,0)" fill="rgb(1,111,200)" d="M 722.407 1312.22 C 723.769 1312.15 725.134 1312.12 726.498 1312.14 C 745.755 1312.53 741.343 1338.36 740.746 1351.22 C 746.948 1350.89 759.326 1349.52 763.998 1353.24 C 771.112 1358.91 769.18 1374.21 763.669 1380.27 C 759.328 1385.05 746.366 1384.35 740.131 1384.74 C 739.099 1403.57 737.377 1436.2 742.5 1454.54 C 744.192 1460.6 755.126 1457.64 758.292 1459.06 C 771.121 1464.84 774.06 1486.83 759.376 1494.26 C 753.559 1495.87 747.556 1496.72 741.519 1496.78 C 693.154 1496.92 703.761 1416.09 704.941 1385.28 C 700.635 1385.73 695.432 1386.78 691.987 1383.53 C 684.149 1376.15 685.378 1362.2 692.423 1354.83 C 696.506 1352.98 700.673 1353.52 705.286 1353.56 C 706.201 1336.15 701.603 1317.25 722.407 1312.22 z"/>
<path transform="translate(0,0)" fill="rgb(1,111,200)" d="M 1072.4 1333.31 C 1076.9 1333.16 1081.86 1332.81 1085.81 1335.39 C 1088.42 1337.11 1090.08 1339.42 1090.7 1342.5 C 1094.07 1359.48 1093.54 1471.83 1087.85 1479.31 C 1084.06 1484.3 1078.3 1484.12 1072.65 1484.62 C 1068.48 1484.39 1063.83 1484.35 1060.23 1481.93 C 1055.39 1478.68 1054.35 1473.68 1053.38 1468.3 C 1050.64 1452.97 1048.57 1348.15 1056.1 1339.31 C 1060.1 1334.6 1066.7 1334.16 1072.4 1333.31 z"/>
<path transform="translate(0,0)" fill="rgb(1,111,200)" d="M 1072.52 1265.12 C 1101.26 1264.09 1106.17 1307.67 1074.82 1315.64 C 1055.39 1314.76 1044.93 1300.25 1052.35 1281.12 C 1055.85 1272.08 1064 1268.43 1072.52 1265.12 z"/>
<path transform="translate(0,0)" fill="rgb(149,200,250)" d="M 1642.81 474.649 C 1687.98 479.063 1734.63 514.535 1753.25 556.251 C 1770.36 594.605 1769.03 614.67 1769.03 654.939 L 1769.03 734.345 L 1769.04 987.785 L 1769.19 1280.68 C 1769.51 1318.03 1769.61 1355.38 1769.51 1392.73 C 1769.45 1412.12 1769.93 1432.75 1768.69 1451.95 C 1767.31 1473.89 1762.68 1495.5 1754.95 1516.07 C 1733 1574.09 1692.72 1612.71 1637.18 1637.95 C 1600 1654.81 1568.56 1653.01 1529.56 1657.29 C 1556.81 1642.64 1580.72 1620.67 1599.65 1596.36 C 1624.73 1563.68 1640.56 1524.86 1645.51 1483.97 C 1648.68 1459.71 1647.87 1435.23 1647.72 1410.82 L 1647.58 1331.51 L 1647.69 1045.09 L 1647.58 691.394 L 1647.59 589.705 C 1647.59 543.656 1648.49 520.498 1642.81 474.649 z"/>
<path transform="translate(0,0)" fill="rgb(149,200,250)" d="M 1793.99 617.213 C 1827.5 628.391 1861.21 666.106 1877.51 696.988 C 1904.88 748.86 1899.03 801.648 1899.19 858.651 L 1899.28 1043.37 L 1899.28 1276.28 C 1899.28 1316.25 1900.34 1357.48 1898.81 1397.33 C 1895.38 1486.37 1849.37 1562.27 1769.63 1602.99 C 1739.51 1617.9 1714.76 1622.5 1681.97 1624.26 C 1697.28 1617.09 1716.77 1601.41 1728.81 1589.34 C 1760.04 1557.67 1781.18 1517.46 1789.56 1473.77 C 1796.04 1439.71 1794.09 1394.56 1794.08 1358.81 L 1794.06 1201.56 L 1793.99 617.213 z"/>
</svg>